<svg viewBox="0 0 1800 260.71" xmlns="http://www.w3.org/2000/svg" data-name="Layer 2" id="Layer_2">
  <defs>
    <style>
      .cls-1 {
        fill: #231f20;
        stroke-width: 0px;
      }
    </style>
  </defs>
  <g data-name="Layer 1" id="Layer_1-2">
    <g>
      <path d="M260.36,258.25h-61.22c7.04-6.33,9.5-15.83,9.5-33.78V54.88l-86.2,203.36h-12.31L23.22,44.68v179.79c0,17.94,2.11,27.44,9.15,33.78H0c7.04-6.33,9.5-15.83,9.5-33.78V35.89C9.5,17.94,7.04,8.44,0,2.11h48.2l82.33,200.9L216.38,2.11h43.98c-7.04,6.33-9.5,15.83-9.5,33.78v188.58c0,17.94,2.46,27.44,9.5,33.78Z" class="cls-1"></path>
      <path d="M452.01,229.75l-14.43-43.98h-111.53l-14.78,43.63c-5.28,15.13-7.04,23.22,1.76,28.85h-32.37c11.26-6.68,12.31-15.48,16.89-28.85L374.61,2.11h44.33l77.4,227.29c3.52,10.91,5.98,21.46,16.89,28.85h-63.33c8.8-5.63,7.04-13.72,2.11-28.5ZM433.72,174.16l-51.37-154.81-52.42,154.81h103.79Z" class="cls-1"></path>
      <path d="M706.43,19.35l-7.04,26.04h-.35c-10.2-15.13-28.5-33.07-57.35-33.07-49.26,0-84.79,38.7-85.14,115.75,0,85.14,33.42,120.33,83.74,120.33,26.39,0,41.87-10.91,59.46-26.74h.35l9.15,17.59c-19.7,13.02-40.46,21.46-70.01,21.46-85.85,0-129.48-63.33-129.83-132.29C509.05,59.81,555.49,0,637.82,0c27.09,0,53.48,9.15,68.61,19.35Z" class="cls-1"></path>
      <path d="M969.96,129.12c0,78.46-54.53,131.59-125.25,131.59s-125.25-53.13-125.25-131.59S773.99,0,844.71,0s125.25,52.07,125.25,129.12ZM766.6,129.12c.35,82.68,34.48,119.63,78.11,119.63s77.76-36.94,77.76-119.63c.35-79.87-34.48-117.16-77.76-117.16s-78.11,37.29-78.11,117.16Z" class="cls-1"></path>
      <path d="M1206.54,2.11c-7.04,6.33-9.15,15.83-9.15,33.78v222.36h-17.24l-158.68-200.19v166.42c0,17.94,2.11,27.44,9.15,33.78h-32.37c7.04-6.33,9.5-15.83,9.5-33.78V35.89c0-17.94-2.46-27.44-9.5-33.78h27.79l157.62,195.27V35.89c0-17.94-2.46-27.44-9.5-33.78h32.37Z" class="cls-1"></path>
      <path d="M1457.76,131.59c0,75.29-51.01,126.66-128.42,126.66h-87.25c7.04-6.33,10.2-15.83,10.2-33.78V35.89c0-17.94-3.16-27.44-10.2-33.78h87.25c78.11,0,128.42,49.96,128.42,129.48ZM1410.61,131.59c0-79.16-33.78-117.87-82.33-117.87h-33.78v232.91h33.78c47.85,0,82.33-38.35,82.33-115.05Z" class="cls-1"></path>
      <path d="M1547.91,258.25h-60.87c7.04-6.33,9.5-15.83,9.5-33.78V35.89c0-17.94-2.46-27.44-9.5-33.78h60.87c-7.04,6.33-9.15,15.83-9.15,33.78v188.58c0,17.94,2.11,27.44,9.15,33.78Z" class="cls-1"></path>
      <path d="M1738.78,229.75l-14.43-43.98h-111.53l-14.78,43.63c-5.28,15.13-7.04,23.22,1.76,28.85h-32.37c11.26-6.68,12.31-15.48,16.89-28.85L1661.38,2.11h44.33l77.4,227.29c3.52,10.91,5.98,21.46,16.89,28.85h-63.33c8.8-5.63,7.04-13.72,2.11-28.5ZM1720.49,174.16l-51.37-154.81-52.42,154.81h103.79Z" class="cls-1"></path>
    </g>
  </g>
</svg>